<?xml version="1.0" standalone="no"?>
<!DOCTYPE svg PUBLIC "-//W3C//DTD SVG 20010904//EN"
 "http://www.w3.org/TR/2001/REC-SVG-20010904/DTD/svg10.dtd">
<svg version="1.0" xmlns="http://www.w3.org/2000/svg"
 width="512.000000pt" height="512.000000pt" viewBox="0 0 512.000000 512.000000"
 preserveAspectRatio="xMidYMid meet">

<g transform="translate(0.000000,512.000000) scale(0.100000,-0.100000)"
fill="#000000" stroke="none">
<path d="M500 5111 c-69 -21 -131 -74 -166 -141 -15 -28 -19 -63 -22 -176 l-4
-141 -68 -6 c-81 -7 -133 -31 -183 -86 -111 -123 -47 -326 118 -370 22 -6 61
-11 88 -11 l47 0 0 -229 0 -228 -75 -5 c-60 -4 -84 -11 -122 -34 -122 -75
-147 -237 -55 -345 48 -56 100 -79 185 -79 l67 0 0 -235 0 -235 -56 0 c-113 0
-188 -44 -230 -134 -31 -66 -31 -126 0 -192 42 -90 117 -134 230 -134 l56 0 0
-235 0 -235 -65 0 c-79 0 -127 -18 -177 -67 -104 -101 -81 -279 45 -357 38
-23 62 -30 122 -34 l75 -5 0 -228 0 -229 -47 0 c-27 0 -66 -5 -88 -11 -165
-44 -229 -247 -118 -370 50 -55 102 -79 183 -86 l68 -6 4 -141 c3 -121 7 -147
25 -181 25 -47 74 -95 123 -121 34 -18 100 -19 1880 -19 l1845 0 40 22 c47 25
95 74 121 123 18 33 19 82 22 1057 l2 1021 -22 27 c-30 34 -80 37 -111 6 l-22
-22 -5 -1020 -5 -1021 -23 -18 c-13 -11 -42 -22 -65 -25 -23 -3 -712 -4 -1532
-3 l-1490 3 0 2405 0 2405 1490 3 c820 1 1509 0 1532 -3 23 -3 52 -14 65 -25
l23 -18 5 -667 5 -667 29 -25 c35 -29 69 -25 104 13 l23 26 -3 666 c-3 628 -4
669 -22 702 -26 49 -74 98 -121 123 l-40 22 -1830 2 c-1007 1 -1841 -2 -1855
-6z m94 -640 c16 -15 26 -35 26 -52 0 -79 -27 -89 -240 -89 l-172 0 -29 29
c-16 16 -29 40 -29 53 0 29 25 67 54 78 11 5 98 8 193 7 166 -2 172 -3 197
-26z m7 -930 c25 -31 24 -79 -3 -108 -21 -22 -26 -23 -214 -23 l-193 0 -20 26
c-24 30 -26 52 -10 88 19 41 43 45 237 43 180 -2 184 -3 203 -26z m-6 -926
c16 -15 25 -36 25 -55 0 -19 -9 -40 -25 -55 -24 -25 -26 -25 -210 -25 -184 0
-186 0 -210 25 -16 15 -25 36 -25 55 0 19 9 40 25 55 24 25 26 25 210 25 184
0 186 0 210 -25z m2 -927 c29 -27 30 -77 4 -109 -19 -23 -24 -24 -196 -27
-192 -4 -225 2 -244 44 -16 36 -14 58 10 88 l20 26 192 0 c182 0 192 -1 214
-22z m-18 -913 c49 -25 57 -87 15 -126 -25 -24 -29 -24 -211 -24 l-185 0 -24
28 c-32 38 -31 72 5 108 l29 29 172 0 c130 0 178 -3 199 -15z"/>
<path d="M1489 4470 c-58 -30 -96 -81 -109 -146 -8 -37 -11 -132 -8 -273 3
-215 3 -216 31 -263 18 -31 44 -57 74 -75 44 -26 54 -27 171 -28 123 0 124 0
148 28 27 31 29 45 13 80 -17 37 -50 47 -157 47 -63 0 -102 4 -110 12 -9 9
-12 76 -12 240 0 214 1 228 19 238 13 7 373 10 1096 10 723 0 1083 -3 1096
-10 18 -10 19 -24 19 -238 0 -164 -3 -231 -12 -240 -9 -9 -210 -12 -844 -12
-826 0 -831 0 -858 -21 -38 -30 -37 -91 1 -116 25 -17 80 -18 873 -18 l845 0
45 25 c50 28 85 74 101 133 6 24 9 128 7 271 -3 223 -4 232 -27 273 -14 24
-42 55 -64 70 l-40 28 -1131 2 c-1096 2 -1132 2 -1167 -17z"/>
<path d="M4668 3727 c-31 -13 -74 -38 -95 -55 -21 -17 -597 -590 -1280 -1274
l-1242 -1243 -195 -303 c-209 -325 -219 -347 -196 -431 25 -93 135 -157 226
-133 25 7 169 92 336 198 l293 186 1273 1277 c1069 1071 1277 1285 1300 1331
23 47 27 67 27 140 -1 73 -5 93 -30 143 -57 114 -156 178 -285 184 -62 3 -85
0 -132 -20z m199 -146 c50 -23 92 -82 100 -139 10 -77 -8 -106 -181 -280
l-160 -162 -128 127 -128 128 152 153 c194 195 242 219 345 173z m-477 -566
l125 -125 -1015 -1015 -1015 -1015 -127 127 -128 128 1012 1012 c557 557 1015
1013 1018 1013 3 0 61 -56 130 -125z"/>
<path d="M1406 2989 c-34 -27 -37 -86 -5 -115 20 -18 53 -19 973 -22 523 -1
961 0 974 3 61 15 82 86 37 130 l-24 25 -964 0 c-960 0 -964 0 -991 -21z"/>
<path d="M1430 2263 c-56 -21 -70 -96 -24 -132 26 -21 34 -21 660 -21 449 0
640 3 658 11 36 17 54 65 35 98 -29 52 -19 51 -689 50 -344 0 -632 -3 -640 -6z"/>
</g>
</svg>
